<?xml version="1.0" standalone="no"?>
<!DOCTYPE svg PUBLIC "-//W3C//DTD SVG 20010904//EN"
 "http://www.w3.org/TR/2001/REC-SVG-20010904/DTD/svg10.dtd">
<svg version="1.0" xmlns="http://www.w3.org/2000/svg"
 width="114.000000pt" height="114.000000pt" viewBox="0 0 114.000000 114.000000"
 preserveAspectRatio="xMidYMid meet">
<metadata>
Created by potrace 1.11, written by Peter Selinger 2001-2013
</metadata>
<g transform="translate(0.000000,114.000000) scale(0.100000,-0.100000)"
fill="#000000" stroke="none">
<path d="M435 954 c-152 -32 -283 -125 -318 -227 -66 -197 153 -381 453 -380
162 1 292 47 384 136 114 112 108 251 -15 362 -46 42 -142 89 -216 106 -76 17
-211 19 -288 3z m371 -102 c41 -21 119 -91 110 -99 -2 -3 -28 0 -58 6 -89 18
-149 23 -256 24 -60 0 -109 5 -118 11 -33 24 13 63 86 73 19 3 37 7 39 9 2 2
38 2 80 0 52 -2 90 -10 117 -24z m-518 -308 c20 -3 64 -9 97 -13 33 -5 109 -9
170 -10 104 -2 133 -10 119 -33 -8 -13 -65 -40 -98 -47 -17 -3 -67 -6 -112 -5
-90 0 -142 20 -201 77 -31 29 -45 56 -23 42 6 -4 27 -9 48 -11z"/>
<path d="M38 250 c-19 -33 -23 -47 -13 -44 8 4 15 10 15 14 0 5 6 15 13 22 6
8 18 24 25 36 10 18 10 22 0 22 -7 0 -25 -23 -40 -50z"/>
<path d="M107 278 c3 -14 -4 -32 -17 -45 -21 -23 -14 -33 8 -11 9 9 15 8 27
-8 9 -11 13 -13 10 -4 -3 9 2 24 10 35 16 19 16 19 11 -10 -6 -28 -5 -29 9
-11 10 13 12 23 5 32 -8 8 -6 14 6 18 9 4 14 9 10 13 -3 4 -20 -7 -37 -23 -27
-25 -31 -26 -25 -8 4 13 1 26 -7 33 -12 9 -13 7 -10 -11z"/>
<path d="M373 288 c-24 -39 -40 -78 -31 -78 5 0 12 9 15 19 3 11 11 22 19 25
12 4 12 2 4 -15 -6 -11 -9 -25 -7 -32 3 -7 10 1 16 17 8 19 8 33 2 39 -5 5 -7
16 -4 23 6 17 -3 18 -14 2z"/>
<path d="M557 256 c-14 -25 -22 -48 -18 -50 9 -6 56 83 48 90 -3 3 -16 -15
-30 -40z"/>
<path d="M884 288 c-23 -33 -44 -78 -36 -78 9 0 55 81 49 87 -2 2 -8 -2 -13
-9z"/>
<path d="M453 279 c3 -9 -1 -26 -9 -38 -8 -12 -12 -26 -8 -32 4 -7 12 1 20 21
10 23 11 36 3 48 -10 16 -10 16 -6 1z"/>
<path d="M1123 284 c3 -6 -3 -15 -13 -22 -12 -7 -21 -8 -25 -2 -10 16 -36 -16
-29 -34 3 -9 10 -16 14 -16 5 0 17 -3 27 -6 14 -4 12 -1 -6 15 -13 12 -21 25
-17 28 4 4 12 1 17 -7 8 -11 12 -12 16 -2 2 6 8 10 13 7 4 -3 10 4 13 15 3 11
0 23 -5 27 -6 3 -8 2 -5 -3z"/>
<path d="M927 251 c-19 -32 -21 -41 -9 -41 8 0 34 61 29 67 -2 1 -11 -11 -20
-26z"/>
<path d="M207 263 c-9 -3 -15 -8 -12 -13 3 -5 1 -11 -5 -15 -5 -3 -10 -14 -10
-23 0 -11 8 -4 21 17 11 18 23 30 26 27 4 -4 1 -12 -5 -18 -14 -14 -16 -28 -3
-28 13 0 25 40 14 49 -4 4 -16 6 -26 4z"/>
<path d="M260 245 c-17 -19 -21 -28 -13 -36 6 -6 9 -18 6 -27 -4 -10 -2 -13 6
-8 16 10 64 87 58 92 -3 3 -15 -11 -27 -30 -12 -20 -24 -36 -26 -36 -10 0 -2
30 12 45 9 9 14 18 12 20 -3 3 -15 -6 -28 -20z"/>
<path d="M485 260 c-3 -5 -3 -10 1 -10 4 0 -1 -9 -11 -20 -15 -16 -15 -20 -3
-20 17 0 42 47 28 55 -5 3 -11 1 -15 -5z"/>
<path d="M515 239 c-9 -40 -2 -46 12 -9 6 17 7 32 3 35 -5 3 -11 -9 -15 -26z"/>
<path d="M586 253 c-3 -10 -9 -24 -12 -30 -3 -7 0 -13 8 -13 7 0 14 13 15 30
2 34 -2 38 -11 13z"/>
<path d="M635 259 c-4 -6 -4 -13 -1 -16 3 -4 6 -1 6 6 0 7 4 10 9 7 5 -3 7
-15 4 -25 -6 -23 8 -33 27 -19 12 8 12 9 -2 4 -20 -6 -25 18 -7 30 8 4 7 9 -2
15 -19 12 -27 11 -34 -2z"/>
<path d="M698 254 c-6 -23 10 -57 18 -38 3 6 11 20 19 30 12 15 14 16 15 4 0
-9 -5 -21 -12 -28 -9 -9 -9 -12 0 -12 23 0 27 2 24 11 -1 6 2 18 7 28 8 14 6
17 -9 16 -10 -1 -25 -7 -33 -14 -13 -10 -16 -9 -19 6 -3 16 -5 15 -10 -3z"/>
<path d="M816 254 c-9 -8 -16 -22 -16 -29 0 -19 17 -28 26 -14 4 8 3 9 -4 5
-15 -9 -15 -1 -1 25 5 11 14 17 20 14 5 -4 9 -1 9 4 0 16 -16 13 -34 -5z"/>
<path d="M886 248 c-8 -33 -7 -48 4 -48 5 0 7 6 4 14 -3 8 -1 17 5 21 13 8 15
35 2 35 -5 0 -11 -10 -15 -22z"/>
<path d="M991 243 c-9 -20 -9 -29 0 -37 8 -8 10 -7 7 4 -3 8 1 22 9 32 8 9 10
19 5 22 -5 3 -14 -6 -21 -21z"/>
<path d="M416 244 c-19 -19 -20 -30 -3 -40 6 -4 9 -3 4 1 -4 5 0 19 8 32 18
27 13 30 -9 7z"/>
<path d="M955 240 c-13 -15 -15 -24 -8 -31 8 -8 13 -8 17 0 4 6 5 11 1 11 -3
0 -1 9 5 20 14 26 8 25 -15 0z"/>
<path d="M1030 221 c0 -5 5 -13 10 -16 6 -3 10 -2 10 4 0 5 -4 13 -10 16 -5 3
-10 2 -10 -4z"/>
<path d="M215 180 c3 -5 8 -10 11 -10 2 0 4 5 4 10 0 6 -5 10 -11 10 -5 0 -7
-4 -4 -10z"/>
</g>
</svg>
